<svg width="262" height="43" viewBox="0 0 262 43" fill="none" xmlns="http://www.w3.org/2000/svg">
<path d="M208.604 32.0144H211.733V32.995L209.584 35.0607V35.9161L210.607 36.8759L211.733 37.9818L210.607 38.9416H209.584L207.665 36.9594L208.604 37.9818L207.665 38.9416H205.516L204.618 37.9818L205.662 36.9594V32.0144H208.604ZM208.604 32.0144V33.8088M259.616 34.8337H260.658V33.9317L258.434 31.9473H254.545L253.543 32.8493L254.545 33.9317V36.9585L253.543 38.0008L254.545 38.983H258.554L260.658 37.8404V35.9362L259.616 34.8337ZM259.616 34.8337H259.155M256.489 33.7914L257.772 33.8916V34.6333H256.489V33.8916L256.369 33.5909V33.4707M256.509 36.0965H257.692V36.9184H256.509V36.0965ZM256.509 36.0965H256.229M189.603 10.8329V17.6862L193.688 21.8387L197.604 22.0412L201.521 18.9016V9.98892L198.448 6.91676H192.675L189.603 10.6641M164.766 15.9963H163.688L163.538 13.871H169.525L169.735 15.9963H168.777L168.507 19.7978L163.688 23.8987H156.654L150.667 18.0317L150.427 11.0273L150.667 9.94972L157.462 3.9331H163.389L167.46 7.04618L167.699 11.0273H165.334L165.534 10.0388L162.488 7.04618L157.501 6.95952L153.635 12.1307V15.8794L158.773 21.9376H161.635L164.58 19.9796L164.766 16.0803M131.573 7.10802V13.0531L134.519 11.036L134.651 9.09857L131.573 6.8957M131.679 14.9906V21.0949H134.704L135.58 20.0067L135.766 16.1318L134.704 14.9906H131.679ZM131.679 14.9906H131.546V15.0967M223.701 22.1088V23.9656H228.664L228.832 22.1088H227.583V11.0692L239.501 23.9656H241.695V21.096H240.513V7.86204L242.539 6.98428V5.05996H236.597V6.98428L238.69 7.86204V18.0238L226.672 5.05996H224.714L224.511 21.94H223.701M100.629 33.8899H99.711V31.9042H102.628L104.696 33.8899L103.641 34.9855L104.504 35.9579V36.9439L102.628 38.8749H100.546L98.6839 37.0397V35.9579H99.711L101.71 36.9439M100.629 33.8899H102.628M100.629 33.8899V35.9579H101.71V36.9439M101.71 36.9439H103.025M169.335 33.8256H168.418V31.8399H171.335L173.403 33.8256L172.348 34.9212L173.211 35.8936V36.8796L171.335 38.8106H169.253L167.391 36.9754V35.8936H168.418L170.417 36.8796M169.335 33.8256H171.335M169.335 33.8256V35.8936H170.417V36.8796M170.417 36.8796H171.732M11.8565 4.69271V5.9061H14.56V4.54369H11.452M10.5986 4.95129V5.95541H7.61968V4.56638H10.5986L10.8329 4.70026L11.1843 4.8174L11.3851 4.56638C11.3182 4.76162 11.1843 5.19227 11.1843 5.35293C11.1843 5.55376 11.1006 5.62069 11.1843 5.78805C11.2512 5.92194 11.2122 6.12276 11.1843 6.20643L11.3851 6.34032M6.6323 5.03496V5.92193H3.70362V4.61658H6.6323L6.90007 4.80067L7.01721 5.03496M20.5966 16.9324V18.9743L13.5869 24.8908L20.6288 30.0034V31.9649H19.4873L9.4871 24.8908L18.8442 16.9324H20.5966ZM20.5966 16.9324H21.0468M26.6437 14.0739V17.0448L25.6015 18.972V20.9988L24.5411 22.0324V24.9855L23.588 26.0459V28.8916L22.5947 29.9654V32.9587L21.6149 33.9252L23.588 35.9386L24.6485 33.9252L25.6686 31.9252V29.9654L26.6216 27.9654V26.0459L27.6686 23.9385V21.9385L28.6217 19.9787V17.9384L29.6015 15.9384V13.9786L26.6437 13.9115H26.1787M136.967 37.0162H135.243M191.587 31.8131H192.694V30.0036L188.458 29.812L185.861 32.0685V36.0706L187.734 38.987H190.629L192.524 36.8795V33.9844L191.587 32.8774V31.8131ZM191.587 31.8131H188.607M203.574 34.8948H205.507L205.616 32.7664L204.595 31.8976H199.534L198.514 32.7664L198.622 33.9175L199.686 34.8948M203.574 34.8948V37.045L204.595 37.9137L203.574 38.9562H200.512L199.534 37.9137L200.512 36.9364V33.5265M203.574 34.8948V33.5265M246.16 34.8195H248.093L248.201 32.6911L247.181 31.8223H242.12L241.099 32.6911L241.208 33.8422L242.272 34.8195M246.16 34.8195V36.9697L247.181 37.8384L246.16 38.8809H243.097L242.12 37.8384L243.097 36.8611V33.4512M246.16 34.8195V33.4512M223.776 31.8671L221.671 33.9718V36.9986L223.616 38.9629H226.562L227.564 37.219L226.562 35.9562L225.6 36.9986H224.678V34.072L225.6 35.1143L227.564 34.954V32.9495L225.6 31.8671H223.776ZM195.054 32.1419L193.027 34.0318L193.11 37.0721L195.054 39.003H196.999L198.957 37.0721L199.053 34.0318L197.081 32.1419H195.054ZM195.978 33.9766L195.011 34.9872L194.934 36.0307L195.978 36.9863L197.087 36.0307V35.0531L195.978 33.9766ZM153.6 31.9144V33.938H154.72V39.9107H153.6V41.9343H157.667V39.9107H156.567V38.9676H158.61L159.592 37.9853L160.594 36.9047V33.938L158.61 31.9144H153.6ZM157.628 34.0559L156.645 34.9204V37.0226H157.628L158.512 35.9027V35.0186L157.628 34.0559ZM172.921 31.6757V33.6993H174.041V39.672H172.921V41.6957H176.988V39.672H175.888V38.729H177.931L178.913 37.7466L179.915 36.666V33.6993L177.931 31.6757H172.921ZM176.949 33.8172L175.966 34.6817V36.7839H176.949L177.833 35.664V34.7799L176.949 33.8172ZM206.652 4.1822H221.675V5.83644L220.696 6.14028L211.682 20.8934H218.704V19.9819H219.683V18.834H221.675V24.0668H206.652V21.096L216.577 6.91676H208.576V8.84108H206.652V4.1822ZM186.632 10.9342L185.653 10.7654V16.9772H186.632V19.1716L191.46 23.8305H198.685L204.626 20.0156V17.9225L205.673 16.9772V10.9342L204.626 9.85388V8.97612L197.706 4.01339L193.621 3.81084L186.632 9.85388V10.9342ZM140.699 16.9541H148.482V13.9608H140.699V16.9541ZM170.596 23.898H175.492L175.762 21.9737V21.0622H174.715V6.84924H177.483L179.509 8.97612V11.0355L175.762 13.8038V15.9644L182.446 23.1891L183.459 23.898H186.497V21.9737L178.8 15.0867L182.682 12.9598V8.0646L179.779 5.0262L170.596 4.8574V6.84924H171.744V21.9737H170.596V23.898ZM126.61 5.09093V7.10802L127.592 6.94878V21.838H126.663L126.477 23.8817H135.58L139.721 20.0067V16.9015L136.722 13L137.757 10.9033V7.85116L134.784 5.09093H126.61ZM123.669 23.8264C123.612 23.214 123.532 21.9746 123.669 21.9158C123.807 21.857 124.559 21.2707 124.919 20.985L124.649 19.1968V18.9029H122.469L122.616 20.1031L121.538 20.985H116.688V15.9635H120.51V16.9923H122.739V11.8728H120.387L120.51 12.9016H116.688V6.99825H121.538V8.93337H123.547V3.91187L119.579 3.7649V4.96516L112.622 4.84268V6.99825H113.724V20.985L112.451 22.0873L112.598 23.8264H123.669ZM93.603 22.9958H94.4526V21.7718L94.6392 21.1374L94.8632 20.8388H95.3483L95.7215 19.8312L95.9081 19.1221L95.7215 18.6369H96.6918V18.0771L96.3186 17.1441L96.6918 16.1365L97.5502 15.8753V13.9719L97.7741 13.0389L98.4832 12.3299V11.3222L98.7071 9.97871L99.3415 13.0389L99.6028 13.5241V15.3155L100.461 15.8753L100.797 17.8905L100.648 18.6369L101.394 19.1221L101.618 20.8388L101.954 21.7718L102.364 22.145H102.85V22.9958H104.529L104.753 21.7718V20.8388L105.574 20.0551V19.1221L105.761 18.0771L106.768 16.7709V15.8753L107.664 14.8676V11.9567L108.709 10.8371V9.04572L109.754 6.84384H110.612V4.82856H106.432L106.768 7.73952L105.761 9.04572L105.574 11.9567L104.753 13.0389V15.8753L103.447 16.9575V15.8753L102.85 14.8676L102.588 13.9719L102.85 13.0389L101.618 11.6954V9.97871L100.648 9.04572V6.84384L99.6028 5.8362V5.01516L97.7741 4.82856L97.5502 7.73952L96.6918 9.04572L96.4679 9.97871L95.7215 10.8371V13.9719L94.6392 14.1959V17.1441L93.603 16.9575V14.1959L92.8106 13.0389V10.8371L91.9522 9.97871H91.3924L91.6163 8.03808L90.646 7.73952V5.01516L86.2422 4.82856L86.7274 6.84384H87.735V7.73952L88.5188 9.04572V10.8371L89.5264 11.6954V13.0389L90.4221 14.8676V16.9575L91.3924 17.8905V19.8312L92.8106 20.8388V23.2273L93.603 22.9958ZM243.687 4.99244V6.7142L244.531 6.95052L249.358 13.9388L249.629 22.0075H248.649V23.8643H254.625V22.0075H253.646V13.9388L258.507 6.95052H259.621V4.99244H254.389V6.95052L251.688 12.8248L248.649 6.95052V4.99244H243.687ZM91.5007 32.909L90.7103 32.756L90.5318 31.9911L89.6139 30.8182L87.6251 32.909V34.9997L88.6195 36.8865H90.7103V36.0706H92.5461V37.8299H91.6792L91.5007 38.9773H87.6251L85.6363 36.8865V31.9911L87.6251 29.8238L88.4155 29.0844L90.5318 28.9059L92.5461 30.8182V32.909H91.5007ZM94.6302 32.0685L92.6034 33.9584L92.6856 36.9987L94.6302 38.9296H96.5749L98.5333 36.9987L98.6291 33.9584L96.6571 32.0685H94.6302ZM110.571 31.9864V36.9987L111.584 37.9162V40.9291H109.585V39.902L108.572 38.8338H106.558L105.641 39.902V40.9291H103.6V38.8338L105.641 36.8754V31.9864H110.571ZM107.621 33.9182V36.9288H108.639V33.9182H107.621ZM95.5537 33.9032L94.5871 34.9138L94.5102 35.9573L95.5537 36.9129L96.6632 35.9573V34.9797L95.5537 33.9032ZM249.38 32.0198L247.353 33.9097L247.435 36.9499L249.38 38.8809H251.325L253.283 36.9499L253.379 33.9097L251.407 32.0198H249.38ZM250.303 33.8545L249.337 34.865L249.26 35.9085L250.303 36.8642L251.413 35.9085V34.9309L250.303 33.8545ZM66.6268 1.06801H69.5586V41.8472H66.5887L66.6268 1.06801ZM50.6514 1.05314V41.9539H0.587135V0.963737L50.6514 1.05314ZM3.69833 9.94726H48.5809V39.869H3.55202L3.69833 9.94726ZM48.6175 4.05801V6.83802H2.7107V3.98486L48.6175 4.05801ZM30.6473 16.9522L30.551 20.0141H31.5909L38.5234 24.9824L30.705 30.1818L30.5895 31.8956H32.7848L41.7008 24.9824V23.9618L32.7848 17.9536V16.9522H30.6473ZM111.569 33.9425L113.555 31.8921H117.553V37.0374L118.61 37.8885L116.612 38.9975H112.524L111.569 37.7208V33.9425ZM113.71 33.9554V36.8053H114.742V33.9554H113.71ZM160.697 33.8229L162.683 31.7725H166.68V36.9178L167.738 37.7689L165.739 38.8779H161.651L160.697 37.6012V33.8229ZM162.838 33.8358V36.6857H163.869V33.8358H162.838ZM211.678 34.0702L213.664 32.0198H217.662V37.165L218.719 38.0161L216.721 39.1251H212.633L211.678 37.8485V34.0702ZM213.819 34.083V36.9329H214.851V34.083H213.819ZM227.274 34.0702L229.26 32.0198H233.258V37.165L234.315 38.0161L232.317 39.1251H228.229L227.274 37.8485V34.0702ZM229.415 34.083V36.9329H230.447V34.083H229.415ZM179.915 33.7261L181.901 31.6757H185.899V36.821L186.956 37.6721L184.957 38.7811H180.87L179.915 37.5044V33.7261ZM182.056 33.739V36.5888H183.088V33.739H182.056ZM118.651 33.8107L117.558 32.9L118.651 31.8193H124.638L125.694 32.9L124.577 33.8107L124.638 36.9435L125.621 38.012L124.638 38.9956H119.586L117.728 37.9149L118.651 36.9435V33.8107ZM122.415 33.8957L121.651 33.0457L120.849 33.8957H122.415ZM122.488 36.9435L121.651 37.9149L120.728 36.9435H122.488ZM132.482 31.9621V38.9574H129.654V35.8614L128.7 37.0831L128.599 38.9574H125.553V37.8696L126.524 36.8488V33.9703L125.553 32.9829L126.658 31.9621H128.599V34.8238L129.654 33.9703V31.9621H132.482ZM149.623 31.9119V38.9072H146.795V35.8112L145.841 37.0329L145.741 38.9072H142.695V37.8194L143.666 36.7986V33.9201L142.695 32.9327L143.8 31.9119H145.741V34.7736L146.795 33.9201V31.9119H149.623ZM241.099 32.0748V39.0701H238.271V35.9741L237.317 37.1958L237.217 39.0701H234.171V37.9823L235.142 36.9615V34.083L234.171 33.0956L235.275 32.0748H237.217V34.9365L238.271 34.083V32.0748H241.099ZM235.815 30.9573H240.692V28.9843H235.815V30.9573ZM133.519 33.9871L134.674 31.9119H136.632L138.574 33.0331L138.657 34.874L137.553 35.9786L138.574 36.9827V38.1207L137.553 38.9742H134.674L133.519 37.9199V33.9871ZM135.779 34.0373H136.599V34.8406H135.779V34.0373ZM189.65 33.9418L188.586 34.8998V35.9854L189.523 36.9859L190.651 35.9854V35.0062L189.842 33.9418H189.65Z" stroke="white"/>
</svg>
