<svg width="30" height="30" fill="none" xmlns="http://www.w3.org/2000/svg"><path d="M4.984 26.657a.59.59 0 00-.828 0 .59.59 0 00-.172.414.59.59 0 00.586.586.59.59 0 00.586-.586.59.59 0 00-.172-.414zM27.512 10.72a.589.589 0 00-.829 0 .59.59 0 00-.172.414.59.59 0 00.586.585.59.59 0 00.587-.585.589.589 0 00-.172-.415z" fill="#FFBB01"/><path d="M29.828.172A.586.586 0 0029.414 0H15a.586.586 0 00-.586.587v1.675L8.86 3.751a.586.586 0 00-.415.717l2.88 10.743-2.491 2.49a1.757 1.757 0 00-1.451-.767H1.758A1.76 1.76 0 000 18.692v9.55c0 .97.789 1.759 1.758 1.759h5.625a1.76 1.76 0 001.706-1.335l.697.607a2.952 2.952 0 001.94.728h17.688a.586.586 0 00.586-.586V.586a.587.587 0 00-.172-.414zM7.968 28.243a.587.587 0 01-.585.586H1.758a.587.587 0 01-.586-.586v-9.55c0-.324.263-.587.586-.587h2.226v6.75a.586.586 0 001.172 0v-6.75h2.227c.323 0 .586.263.586.586v9.551zM9.73 4.731l4.685-1.255v2.17l-.393.106a.586.586 0 00-.414.718 1.58 1.58 0 01-1.116 1.932.586.586 0 00-.414.719l2.284 8.457h-1.176l-.606-2.37a.585.585 0 00-.098-.206L9.729 4.73zm4.685 3.603v4.944l-1.069-3.957c.447-.23.812-.575 1.069-.987zm8.418 20.495H11.726a1.78 1.78 0 01-1.17-.439L9.14 27.156v-8.104l2.558-2.558.464 1.815c.066.26.3.441.567.441h11.52a.821.821 0 010 1.641h-5.902a.586.586 0 000 1.172h7.736a.821.821 0 010 1.64h-7.736a.586.586 0 000 1.173h6.483a.821.821 0 010 1.64h-6.483a.586.586 0 000 1.172h4.484a.821.821 0 010 1.64zm5.996 0h-4.181a1.979 1.979 0 000-1.64h.184a1.994 1.994 0 001.78-2.885 1.995 1.995 0 001.466-1.92c0-.445-.147-.856-.394-1.187V13.77a.586.586 0 00-1.172 0v6.668a1.991 1.991 0 00-.427-.047h-.019a1.994 1.994 0 00-1.815-2.813h-.942A2.808 2.808 0 0025.011 15a2.807 2.807 0 00-2.804-2.804A2.807 2.807 0 0019.403 15c0 1.156.702 2.15 1.702 2.579h-3.203V6.437a2.758 2.758 0 002.101-2.1h4.408a2.758 2.758 0 002.1 2.1V8.26a.586.586 0 101.172 0V5.914a.586.586 0 00-.586-.586 1.58 1.58 0 01-1.577-1.577.586.586 0 00-.586-.586H19.48a.586.586 0 00-.586.586 1.58 1.58 0 01-1.578 1.577.586.586 0 00-.586.586V17.58h-1.144V1.173l13.242-.001v27.657zm-6.621-12.196c-.9 0-1.632-.732-1.632-1.633 0-.9.732-1.632 1.632-1.632.9 0 1.632.732 1.632 1.632 0 .9-.732 1.633-1.632 1.633z" fill="#FFBB01"/></svg>