<svg width="30" height="32" fill="none" xmlns="http://www.w3.org/2000/svg"><path d="M15.869 20.201a1.892 1.892 0 001.386-.775l4.979-6.884a.532.532 0 00-.743-.742l-6.885 4.98a1.892 1.892 0 00-.225 2.872 1.89 1.89 0 001.488.55zm-.977-1.953a.83.83 0 01.34-.608l4.198-3.038-3.037 4.199a.832.832 0 01-1.5-.553z" fill="#FFBB01"/><path d="M27.78 10.404c-.005-.011-.005-.023-.01-.034-.007-.011-.017-.017-.024-.027a14.457 14.457 0 00-1.896-2.557l1.142-1.142.752.752L30 5.14l-2.256-2.256-2.256 2.256.752.752-1.142 1.142a14.435 14.435 0 00-2.557-1.897c-.01-.006-.016-.017-.027-.023-.01-.006-.023-.006-.034-.012a14.257 14.257 0 00-5.463-1.81V2.66h.798a1.33 1.33 0 000-2.659h-4.787a1.33 1.33 0 000 2.659h.798v.615c-.574.06-1.147.154-1.714.284a.532.532 0 10.237 1.037c.49-.113.984-.197 1.479-.254l.57-.044c.175-.014.335-.023.492-.03v1.05a.531.531 0 101.063 0V4.27c2 .092 3.885.63 5.56 1.513l-.524.908a.532.532 0 00.921.532l.523-.906a13.397 13.397 0 014.133 4.133l-.906.523a.532.532 0 00.533.92l.908-.524a13.199 13.199 0 011.515 5.647h-1.05a.531.531 0 100 1.064h1.05a13.199 13.199 0 01-1.515 5.647l-.908-.525a.53.53 0 10-.532.921l.906.523a13.399 13.399 0 01-4.133 4.133l-.523-.905a.53.53 0 10-.92.531l.524.908a13.19 13.19 0 01-5.56 1.513v-1.047a.531.531 0 10-1.064 0v1.051c-.85-.03-1.701-.135-2.54-.328a.531.531 0 10-.238 1.036c1.062.245 2.146.368 3.222.368l.077-.002.01.002.012-.002a14.265 14.265 0 007.03-1.9c.016-.008.033-.011.05-.021.01-.006.016-.017.026-.023a14.464 14.464 0 005.197-5.191c.01-.014.023-.026.032-.041.006-.012.006-.023.01-.035a14.257 14.257 0 001.914-7.145c0-2.6-.699-5.039-1.913-7.144zm-.036-6.016l.752.752-.752.752-.753-.752.753-.752zM14.89 3.202V1.595h-1.862a.267.267 0 01-.265-.266c0-.146.12-.265.265-.265h4.786c.147 0 .266.12.266.265 0 .147-.12.266-.266.266h-1.86v1.607a13.226 13.226 0 00-.533-.011h-.086c-.087 0-.175.005-.262.007-.062.002-.12.001-.183.004zM10.636 7.445h-2.66a.531.531 0 100 1.063h2.66a.531.531 0 100-1.063zM10.636 11.167H5.318a.531.531 0 100 1.064h5.318a.531.531 0 100-1.064zM10.636 14.89H2.659a.531.531 0 100 1.063h7.977a.531.531 0 100-1.063zM10.636 18.612H.532a.531.531 0 100 1.064h10.104a.531.531 0 100-1.064zM10.635 22.334H3.722a.531.531 0 100 1.064h6.913a.531.531 0 100-1.064zM10.636 26.057H6.913a.531.531 0 100 1.063h3.723a.531.531 0 100-1.063z" fill="#FFBB01"/></svg>