<svg width="15" height="18" fill="none" xmlns="http://www.w3.org/2000/svg"><path d="M7.436 9.502H7.553c1.07-.018 1.935-.394 2.574-1.114 1.406-1.585 1.173-4.302 1.147-4.56C11.183 1.88 10.263.948 9.503.514 8.937.19 8.276.015 7.538 0h-.062c-.405 0-1.201.066-1.964.5-.767.435-1.702 1.366-1.793 3.327-.026.26-.26 2.976 1.146 4.561.636.72 1.501 1.096 2.571 1.114zM4.694 3.918c0-.01.003-.022.003-.029.12-2.618 1.98-2.9 2.776-2.9h.044c.985.023 2.662.424 2.775 2.9 0 .011 0 .022.004.03.003.025.259 2.508-.903 3.816-.46.518-1.073.774-1.88.781h-.037c-.803-.007-1.42-.263-1.877-.781-1.157-1.3-.91-3.795-.905-3.817z" fill="#949494"/><path d="M14.999 14.008v-.01c0-.03-.004-.06-.004-.092-.022-.723-.07-2.414-1.654-2.954l-.036-.011c-1.647-.42-3.017-1.37-3.031-1.38a.492.492 0 10-.566.806c.062.044 1.515 1.056 3.334 1.523.85.303.945 1.213.971 2.045 0 .033 0 .062.004.091.003.33-.019.837-.077 1.129-.592.336-2.91 1.497-6.438 1.497-3.513 0-5.847-1.165-6.442-1.5-.058-.293-.084-.8-.077-1.13 0-.028.004-.058.004-.09.026-.833.12-1.742.971-2.045 1.819-.468 3.272-1.483 3.334-1.523a.493.493 0 10-.566-.807c-.014.01-1.376.96-3.03 1.38a.458.458 0 00-.037.011C.074 11.492.027 13.183.005 13.902c0 .033 0 .063-.004.092v.01c-.004.19-.007 1.166.186 1.655a.469.469 0 00.19.23c.11.073 2.735 1.745 7.128 1.745 4.394 0 7.02-1.676 7.129-1.745a.489.489 0 00.19-.23c.182-.486.179-1.46.175-1.65z" fill="#949494"/></svg>