<svg width="18" height="18" fill="none" xmlns="http://www.w3.org/2000/svg"><path d="M2.53 17.454h5.634V11.49H6.14V9.524h2.024V7.067c0-1.355 1.135-2.458 2.53-2.458h2.53v1.966H11.2c-.558 0-1.012.441-1.012.983v1.966h2.945l-.337 1.966h-2.608v5.964h4.554c1.396 0 2.53-1.103 2.53-2.458V3.135c0-1.355-1.134-2.457-2.53-2.457H2.53C1.135.678 0 1.78 0 3.135v11.861c0 1.355 1.135 2.458 2.53 2.458zM1.012 3.135c0-.813.681-1.474 1.518-1.474h12.213c.837 0 1.518.661 1.518 1.474v11.861c0 .813-.681 1.475-1.518 1.475H11.2v-3.998h2.453l.675-3.932H11.2v-.983h3.037V3.627h-3.543c-1.953 0-3.542 1.543-3.542 3.44V8.54H5.128v3.932h2.024v3.998H2.53c-.837 0-1.518-.662-1.518-1.475V3.135z" fill="#fff"/></svg>