<svg width="18" height="17" fill="none" xmlns="http://www.w3.org/2000/svg"><path d="M8.636 0C3.89 0 0 3.81 0 8.42c0 4.584 3.854 8.356 8.636 8.356 4.777 0 8.637-3.766 8.637-8.355C17.273 3.81 13.383 0 8.636 0zm1.519 15.646a7.713 7.713 0 01-1.519.147c-.516 0-1.032-.05-1.518-.147v-2.3c0-.551.152-.748.354-1.013.104-.114.166-.217.628-.895l-.78-.118c-2.003-.284-2.793-1.297-3.106-2.083-.405-1.052-.193-2.37.536-3.205a.58.58 0 00.122-.57c-.152-.452-.132-1.17-.03-1.445.536.074 1.087.448 1.548.718.212.12.323.088.425.098.37-.075.946-.256 1.831-.256.547 0 1.124.079 1.69.236.102-.002.265.082.547-.078.481-.285 1.014-.646 1.549-.718.1.275.121.993-.03 1.445a.58.58 0 00.12.57c.73.836.942 2.153.537 3.205-.314.786-1.103 1.799-3.107 2.083l-.78.118c.479.7.529.785.628.895.203.265.354.462.354 1.012v2.3zm1.011-.286v-2.015c0-.56-.121-.933-.283-1.209 1.539-.403 2.632-1.287 3.117-2.555.517-1.337.284-2.93-.577-4.03.152-.66.152-1.71-.212-2.202a.797.797 0 00-.668-.335h-.01c-.785.042-1.403.425-2.065.816a7.186 7.186 0 00-3.653 0c-.697-.408-1.31-.775-2.116-.816a.783.783 0 00-.637.335c-.365.491-.365 1.543-.213 2.201-.86 1.101-1.093 2.704-.577 4.03.486 1.269 1.58 2.153 3.118 2.556a2.093 2.093 0 00-.264.862c-.311.104-.58.138-.831.066-.265-.076-.47-.247-.65-.54-.402-.655-1.086-1.19-1.866-1.121l.09.979c.36-.032.72.339.906.645.308.503.723.833 1.233.98.379.108.725.106 1.098.028v1.325c-2.945-1.002-5.094-3.735-5.094-6.94 0-4.069 3.434-7.437 7.624-7.437 4.19 0 7.625 3.368 7.625 7.438 0 3.204-2.15 5.937-5.095 6.94z" fill="#fff"/></svg>