<svg width="18" height="17" fill="none" xmlns="http://www.w3.org/2000/svg"><path d="M2.53 16.894h12.213c1.395 0 2.53-1.102 2.53-2.457V2.576c0-1.355-1.135-2.458-2.53-2.458H2.53C1.135.118 0 1.221 0 2.576v11.86c0 1.356 1.135 2.458 2.53 2.458zM1.012 2.576c0-.813.681-1.475 1.518-1.475h12.213c.837 0 1.518.662 1.518 1.475v11.86c0 .814-.681 1.475-1.518 1.475H2.53c-.837 0-1.518-.661-1.518-1.474V2.576z" fill="#fff"/><path d="M8.636 12.93c2.512 0 4.555-1.985 4.555-4.424s-2.043-4.423-4.555-4.423c-2.51 0-4.554 1.984-4.554 4.423 0 2.44 2.043 4.424 4.554 4.424zm0-7.864c1.954 0 3.543 1.543 3.543 3.44s-1.59 3.44-3.543 3.44-3.542-1.543-3.542-3.44 1.59-3.44 3.542-3.44zM13.41 4.827c.826 0 1.5-.653 1.5-1.456 0-.804-.674-1.457-1.5-1.457-.828 0-1.5.653-1.5 1.457 0 .803.672 1.456 1.5 1.456zm0-1.942c.275 0 .5.218.5.486a.494.494 0 01-.5.485.494.494 0 01-.5-.485c0-.268.223-.486.5-.486z" fill="#fff"/></svg>