<svg width="18" height="15" fill="none" xmlns="http://www.w3.org/2000/svg"><path d="M17.273 2.63c-1.087.048-1.063.044-1.186.054L16.731.9s-2.009.717-2.518.846C12.876.578 10.888.526 9.467 1.375c-1.164.695-1.789 1.888-1.58 3.283-2.265-.306-4.174-1.348-5.68-3.106L1.73.996l-.356.635c-.45.803-.6 1.72-.42 2.584.072.354.197.692.37 1.008l-.41-.154-.048.664c-.049.674.182 1.46.618 2.104.123.181.281.38.482.576l-.212-.031.258.76a3.73 3.73 0 001.956 2.201c-.912.376-1.649.616-2.86 1.003L0 12.7l1.023.543c.39.207 1.77.9 3.132 1.107 3.028.461 6.438.085 8.733-1.922 1.933-1.692 2.568-4.097 2.436-6.6-.02-.38.087-.741.3-1.019.43-.556 1.646-2.176 1.649-2.18zm-2.457 1.59a2.495 2.495 0 00-.502 1.658c.133 2.525-.574 4.483-2.103 5.82-1.785 1.561-4.664 2.174-7.9 1.681-.585-.089-1.191-.288-1.692-.488 1.015-.34 1.8-.642 3.066-1.224l1.767-.813-1.951-.12c-.935-.059-1.714-.499-2.192-1.213.254-.015.499-.055.743-.12l1.861-.504-1.877-.447c-.912-.217-1.432-.747-1.707-1.153-.181-.267-.3-.54-.37-.793.188.049.407.084.761.118l1.737.167-1.376-1.043c-.992-.751-1.39-1.88-1.098-2.965 3.095 3.118 6.73 2.884 7.095 2.966-.08-.76-.082-.761-.103-.834-.469-1.608.558-2.425 1.021-2.701.967-.578 2.503-.665 3.566.286.23.206.54.286.831.216.261-.063.475-.13.685-.202l-.437 1.21.558.001c-.105.137-.232.3-.383.498z" fill="#fff"/></svg>