<svg width="50" height="50" fill="none" xmlns="http://www.w3.org/2000/svg"><path d="M48.514 20.963l-8.241 8.241-4.704-4.712 3.555-3.53a.833.833 0 00-1.174-1.173l-3.563 3.521-2.348-2.356 8.234-8.242a.833.833 0 000-1.174.833.833 0 00-1.174 0l-8.833 8.834a.832.832 0 000 1.182l1.182 1.173-1.182 1.183a4.162 4.162 0 00-5.236-.533l-.65-.65a4.164 4.164 0 00-2.939-1.215c-.52 0-1.037.096-1.523.283l-1.424-1.424.591-.582a.833.833 0 000-1.183l-8.266-8.241a.833.833 0 10-1.174 1.182l7.65 7.65-.59.583-4.163 4.121-2.939-2.947a.832.832 0 10-1.182 1.174l2.947 2.947-1.182 1.174-1.107 1.224-7.651-7.684a.832.832 0 00-1.182 0 .833.833 0 000 1.174l8.242 8.241c.157.156.37.243.59.242a.834.834 0 00.592-.242l1.149-1.174 1.173 1.174a4.163 4.163 0 000 5.886l1.566 1.54a.832.832 0 001.182 0 .833.833 0 000-1.174l-1.54-1.54a2.497 2.497 0 010-3.538l.583-.583 5.893-5.894a2.565 2.565 0 013.53 0l5.295 5.295a.833.833 0 01-1.174 1.174l-3.838-3.838a.839.839 0 10-1.182 1.19l3.838 3.838a2.498 2.498 0 103.538-3.53l-3.43-3.43a2.572 2.572 0 012.839.483l7.068 7.068c.466.47.726 1.104.725 1.765a2.497 2.497 0 01-.725 1.765l-2.356 2.356-2.414 2.406-1.707 1.715-4.712 4.712a.833.833 0 01-1.174 0 .832.832 0 010-1.174l5.337-5.311a.832.832 0 10-1.174-1.174l-5.303 5.295a.833.833 0 01-1.174-1.174l5.295-5.295a.832.832 0 10-1.174-1.182L20.3 42.158a.832.832 0 11-1.174-1.182l5.295-5.295a.832.832 0 000-1.182.833.833 0 00-1.174 0l-5.303 5.303a.833.833 0 01-1.174-1.182l6.402-6.394a.836.836 0 10-1.182-1.182l-6.435 6.419a2.498 2.498 0 000 3.53c.43.439 1.009.7 1.623.732a2.498 2.498 0 002.356 2.348 2.498 2.498 0 002.356 2.356c.024.626.283 1.22.724 1.665.75.748 1.892.942 2.847.483l.683.69a2.499 2.499 0 004.262-1.664 2.448 2.448 0 001.665-.725c.433-.434.69-1.011.725-1.623a2.497 2.497 0 002.356-2.356 2.497 2.497 0 001.665-4.262l-.591-.583 1.182-1.182a4.163 4.163 0 001.215-2.94 4.164 4.164 0 00-.757-2.297l1.257-1.257.591.591a.833.833 0 001.174 0l8.807-8.833a.832.832 0 10-1.182-1.173zm-36.496 5.885l5.303-5.294 1.173 1.173L13.2 28.03l-1.182-1.182zM28.5 48.044a.832.832 0 01-1.174 0l-.59-.591 1.182-1.174.582.583a.832.832 0 010 1.182zm2.356-2.356a.833.833 0 01-1.174 0l-.55-.591.592-.591.582-.583.592.583a.834.834 0 010 1.182h-.042zm2.356-2.356a.833.833 0 01-1.174 0l-.59-.591 1.173-1.174.591.591a.832.832 0 010 1.174zm2.356-2.356a.834.834 0 01-1.182 0l-.583-.591 1.157-1.174.592.591c.327.32.334.845.016 1.174zm1.174-10.598l-5.295-5.295 1.174-1.173 5.303 5.294-1.182 1.174z" fill="#FFBB01"/><path d="M15.814 13.32h18.315c.46 0 .833-.373.833-.832V.833A.833.833 0 0034.129 0H15.814a.833.833 0 00-.833.833v11.655c0 .46.373.832.833.832zm.832-3.33c.92 0 1.665.746 1.665 1.665h-1.665V9.99zm16.65 1.665h-1.665c0-.92.746-1.665 1.666-1.665v1.665zm0-8.325c-.919 0-1.665-.746-1.665-1.665h1.666V3.33zm0 1.665v3.33a3.33 3.33 0 00-3.33 3.33h-9.99a3.33 3.33 0 00-3.33-3.33v-3.33a3.33 3.33 0 003.33-3.33h9.99a3.33 3.33 0 003.33 3.33zm-16.65-3.33h1.665c0 .92-.745 1.665-1.665 1.665V1.665z" fill="#FFBB01"/><path d="M24.971 9.99a3.33 3.33 0 100-6.66 3.33 3.33 0 000 6.66zm0-4.995a1.665 1.665 0 110 3.33 1.665 1.665 0 010-3.33zM31.631 6.66a.833.833 0 11-1.665 0 .833.833 0 011.665 0zM19.976 6.66a.833.833 0 11-1.665 0 .833.833 0 011.665 0zM49.805 5.37L46.475.375a.832.832 0 00-1.382 0l-3.33 4.995a.832.832 0 00-.142.457v3.33a.833.833 0 001.665 0v-3.08l2.498-3.746 2.498 3.746v8.908a.833.833 0 001.665 0V5.827a.831.831 0 00-.142-.457z" fill="#FFBB01"/><path d="M46.617 11.655V6.66a.833.833 0 00-1.665 0v4.995a.833.833 0 001.665 0zM.829 7.493h.832v9.99a.833.833 0 001.665 0V6.66a.833.833 0 00-.832-.832h-.05L4.99 2.265 7.54 5.828h-.05a.833.833 0 00-.833.832v1.665a.833.833 0 001.665 0v-.832h.833a.833.833 0 00.674-1.316L5.666.35a.833.833 0 00-1.35 0L.155 6.177A.832.832 0 00.83 7.493z" fill="#FFBB01"/><path d="M4.991 11.655v2.498a.833.833 0 001.665 0v-2.498a.833.833 0 00-1.665 0z" fill="#FFBB01"/></svg>