<svg width="50" height="50" fill="none" xmlns="http://www.w3.org/2000/svg"><path d="M42.11 36.703l-2.949 2.95-1.767-1.775a.836.836 0 10-1.182 1.183l2.357 2.358a.833.833 0 001.184 0l3.574-3.541a.833.833 0 10-1.175-1.175h-.041z" fill="#FFBB01"/><path d="M43.327 30.912V28.33a.833.833 0 00-.833-.833h-2.5v-.833a2.5 2.5 0 012.5-2.5.833.833 0 000-1.666 4.166 4.166 0 00-4.166 4.166v.833h-2.5a.833.833 0 00-.833.833v2.583a9.999 9.999 0 108.332 0zm-3.333 17.414v-.833a.833.833 0 00-1.666 0v.833a8.332 8.332 0 01-7.5-7.499h.834a.833.833 0 000-1.666h-.833a8.332 8.332 0 015.258-6.924.834.834 0 00.533-.775v-2.3h5v2.3c0 .344.212.651.532.775a8.332 8.332 0 015.341 6.924h-.833a.833.833 0 000 1.666h.833a8.332 8.332 0 01-7.499 7.5z" fill="#FFBB01"/><path d="M26.838 43.327H4.166a2.5 2.5 0 01-2.5-2.5V14.165h43.327v15.38a.833.833 0 001.667 0V8.333c0-2.3-1.865-4.166-4.166-4.166h-1.667v-.833a.833.833 0 00-1.666 0v3.333a1.667 1.667 0 01-3.333 0V3.333c0-.92.746-1.667 1.667-1.667a.833.833 0 000-1.666 3.333 3.333 0 00-3.333 3.333v.833h-7.5v-.833a.833.833 0 00-1.666 0v3.333a1.667 1.667 0 01-3.332 0V3.333c0-.92.746-1.667 1.666-1.667a.833.833 0 100-1.666 3.333 3.333 0 00-3.333 3.333v.833h-7.499v-.833a.833.833 0 00-1.666 0v3.333a1.667 1.667 0 01-3.333 0V3.333c0-.92.746-1.667 1.666-1.667a.833.833 0 000-1.666 3.333 3.333 0 00-3.333 3.333v.833H4.166A4.166 4.166 0 000 8.332v32.495c0 2.301 1.865 4.166 4.166 4.166H23.33c4.374 0 4.374 0 4.374-.833a.834.834 0 00-.241-.591.832.832 0 00-.625-.242zM4.166 5.832h1.666v.834a3.333 3.333 0 006.666 0v-.834h7.5v.834a3.333 3.333 0 006.665 0v-.834h7.499v.834a3.333 3.333 0 006.665 0v-.834h1.667a2.5 2.5 0 012.5 2.5v4.166H1.665V8.332a2.5 2.5 0 012.5-2.5z" fill="#FFBB01"/><path d="M14.998 17.497a.833.833 0 00-.833-.833H7.499a.833.833 0 00-.833.833v6.666c0 .46.373.833.833.833h6.666c.46 0 .833-.373.833-.833v-6.666zm-1.666 5.833h-5v-5h5v5zM14.165 29.996a.833.833 0 000-1.667H7.499a.833.833 0 00-.833.833v6.666c0 .46.373.833.833.833h6.666c.46 0 .833-.373.833-.833v-3.333a.833.833 0 00-1.666 0v2.5h-5v-5h5.833zM19.164 28.33a.833.833 0 00-.833.832v6.666c0 .46.373.833.833.833h6.666c.46 0 .833-.373.833-.833v-6.666a.833.833 0 00-.833-.833h-6.666zm5.832 6.665h-4.999v-5h5v5zM37.495 23.33c.46 0 .833-.373.833-.833v-5a.833.833 0 00-.833-.833h-6.666a.833.833 0 00-.833.833v6.666a.833.833 0 001.666 0v-5.832h5v4.166c0 .46.373.833.833.833zM26.421 16.906a.833.833 0 00-1.183 0l-2.741 2.75-2.741-2.75a.837.837 0 00-1.183 1.183l2.749 2.741-2.75 2.742a.832.832 0 000 1.183.832.832 0 001.184 0l2.74-2.75 2.742 2.75a.832.832 0 001.183 0 .832.832 0 000-1.183l-2.75-2.742 2.75-2.741a.832.832 0 000-1.183z" fill="#FFBB01"/></svg>