<svg width="50" height="50" fill="none" xmlns="http://www.w3.org/2000/svg"><path d="M49.904 11.852a2.499 2.499 0 00-1.167-1.516 2.5 2.5 0 00-3.416.916l-.417.725a.833.833 0 00-1.133.3l-2.116 3.607-.725-.416a.834.834 0 00-1.142.308.834.834 0 00.309 1.133l.725.417-7.082 12.273-1.75 4.674-.833 1.558a2.5 2.5 0 00.133 2.7l-1.875 2.3-.524-1.317a1.666 1.666 0 00-2.975-.233l-.3.508-.283-3.333a1.667 1.667 0 00-3.241-.392l-2.05 6.15a.833.833 0 00.525 1.05.72.72 0 00.258.066.833.833 0 00.792-.567l2.041-6.148.292 3.382a1.666 1.666 0 003.09.717l.31-.509.516 1.309a1.666 1.666 0 002.85.424l1.94-2.457c.215.056.437.084.659.083a2.5 2.5 0 002.174-1.233l.834-1.392 3.174-3.857 7.157-12.423.725.416a.833.833 0 01.309 1.142l-3.333 5.774a.832.832 0 00.266 1.175.832.832 0 001.142-.308l3.333-5.775a2.498 2.498 0 00-.917-3.416l-.725-.416 2.083-3.608a.833.833 0 00-.3-1.133l.417-.725a2.5 2.5 0 00.25-1.933zm-3.142.233a.833.833 0 01.509-.391.875.875 0 01.633.083c.193.11.334.293.392.508a.875.875 0 01-.084.633l-.416.725-1.45-.833.416-.725zM35.406 35.348l-.417-.242-1.233-.716 1.183-3.166 2.625 1.516-2.158 2.608zm-2.5 2.408a.833.833 0 01-.25-1.092l.417-.724 1.45.833-.417.716a.833.833 0 01-1.2.267zm5.608-6.382l-2.883-1.667 6.666-11.548 2.882 1.666-6.665 11.549zm7.499-12.99l-2.883-1.666 1.666-2.883L47.68 15.5l-1.666 2.883zM13.148 37.344l-2.95 2.941-1.766-1.766a.833.833 0 10-1.175 1.183l1.767 1.766c.312.31.734.484 1.175.483.442.003.868-.17 1.183-.483l2.94-2.95a.833.833 0 00-1.174-1.174z" fill="#FFBB01"/><path d="M3.333 39.585a7.082 7.082 0 1014.164 0 .833.833 0 00-1.666 0 5.416 5.416 0 11-2.167-4.332.833.833 0 101-1.334 7.083 7.083 0 00-11.331 5.666zM29.995 6.674a.833.833 0 100-1.667H8.332a.833.833 0 00-.833.834v3.332c0 .46.373.834.833.834h21.663a.833.833 0 100-1.667H9.165V6.674h20.83zM10.832 11.673a.833.833 0 000 1.666h16.663a.833.833 0 100-1.666H10.831zM32.495 17.505h-18.33a.833.833 0 000 1.667h18.33a.833.833 0 100-1.667zM24.163 23.338a.833.833 0 00-.834-.834H6.666a.833.833 0 000 1.667h16.663c.46 0 .834-.373.834-.833zM32.494 22.505h-5.832a.833.833 0 000 1.666h5.832a.833.833 0 100-1.666zM14.997 28.337a.833.833 0 100-1.666H6.666a.833.833 0 100 1.666h8.331zM18.33 28.337h5.833a.833.833 0 100-1.666H18.33a.833.833 0 000 1.666z" fill="#FFBB01"/><path d="M37.494 38.335a.833.833 0 00-.834.833V47.5c0 .46-.373.834-.833.834H2.5a.833.833 0 01-.834-.834V2.508c0-.46.373-.833.834-.833h33.327c.46 0 .833.373.833.833v15.648a.833.833 0 001.667 0V2.508a2.5 2.5 0 00-2.5-2.5H2.5a2.5 2.5 0 00-2.5 2.5V47.5A2.5 2.5 0 002.5 50h33.327a2.5 2.5 0 002.5-2.5v-8.332a.833.833 0 00-.833-.833z" fill="#FFBB01"/></svg>