<svg width="50" height="50" fill="none" xmlns="http://www.w3.org/2000/svg"><path d="M48.328 35.635v-2.3h.833c.23.002.45-.092.608-.258a.883.883 0 00.225-.575l-1.491-28.33a4.35 4.35 0 00-8.683 0l-1.491 28.33a.885.885 0 00.225.617c.165.15.384.229.608.216h.833v2.3l-1.575 3.158a.833.833 0 000 .75l5 9.999c.04.092.1.174.175.241.097.09.214.156.342.192h.458a.833.833 0 00.341-.192.714.714 0 00.175-.241l5-9.999a.833.833 0 000-.75l-1.583-3.158zm-8.291-3.966l.35-6.666h7.549l.392 6.666h-8.291zm1.45-27.455a2.675 2.675 0 115.35 0l1.007 19.164H40.48l.091-1.666h4.641a.833.833 0 100-1.667h-4.557l.833-15.831zm5.174 29.121v1.667h-5v-1.667h5zm-1.666 12.299v-5.633h.833a.833.833 0 000-1.666h-3.333a.833.833 0 000 1.666h.833v5.633l-3.233-6.466 1.25-2.5h5.633l1.25 2.5-3.233 6.466zM28.33 10.838a.833.833 0 000-1.667H6.666a.833.833 0 00-.833.834v3.333c0 .46.373.833.833.833H28.33a.833.833 0 000-1.667H7.5v-1.666h20.83zM29.163 18.337a.833.833 0 00-.833-.833H10a.833.833 0 000 1.666H28.33c.46 0 .833-.373.833-.833zM5 22.503c0 .46.373.833.833.833h13.332a.833.833 0 000-1.666H5.832a.833.833 0 00-.834.833zM24.164 21.67a.833.833 0 000 1.666h3.333a.833.833 0 000-1.666h-3.333zM16.665 26.67a.833.833 0 00-.833-.834h-10a.833.833 0 100 1.667h10c.46 0 .833-.374.833-.834zM15.832 30.836a.833.833 0 00-.834-.834H5.833a.833.833 0 000 1.667h9.165c.46 0 .834-.373.834-.833zM5.833 34.169a.833.833 0 100 1.666h5.832a.833.833 0 000-1.666H5.833z" fill="#FFBB01"/><path d="M32.496.006H2.5a2.5 2.5 0 00-2.5 2.5v38.328a2.5 2.5 0 002.5 2.5h14.165a.833.833 0 100-1.666H2.5a.833.833 0 01-.834-.834V7.504H33.33v33.33c0 .46-.374.834-.834.834h-2.5a.833.833 0 000 1.666h2.5a2.5 2.5 0 002.5-2.5V2.505a2.5 2.5 0 00-2.5-2.5zM1.666 5.838V2.505c0-.46.374-.833.834-.833h29.996c.46 0 .834.373.834.833v3.333H1.666z" fill="#FFBB01"/><path d="M23.33 30.835a2.5 2.5 0 100 5 2.5 2.5 0 000-5zm0 3.333a.833.833 0 110-1.666.833.833 0 010 1.666z" fill="#FFBB01"/><path d="M29.997 33.335a2.5 2.5 0 00-1.334-2.208 2.5 2.5 0 00-3.124-3.124 2.5 2.5 0 00-4.416 0 2.5 2.5 0 00-3.125 3.124 2.499 2.499 0 000 4.416 2.5 2.5 0 00.616 2.5c.163.162.348.3.55.408v10.716a.833.833 0 00.517.766c.31.13.669.062.908-.175l2.742-2.75 2.741 2.75a.832.832 0 00.908.175.833.833 0 00.517-.766V38.459a2.37 2.37 0 00.55-.408 2.5 2.5 0 00.616-2.5 2.5 2.5 0 001.334-2.216zm-6.075 11.907a.833.833 0 00-1.183 0l-1.908 1.916v-8.415l.292-.075a2.499 2.499 0 004.416 0l.291.075v8.415l-1.908-1.916zm3.575-11.074h-.142a.834.834 0 00-.591 1.425l.1.1a.834.834 0 010 1.175.792.792 0 01-.334.209h-.125a.834.834 0 01-.716-.234l-.1-.1a.833.833 0 00-1.425.592v.166a.833.833 0 01-1.667 0v-.141a.834.834 0 00-.516-.775.833.833 0 00-.317-.059.834.834 0 00-.591.242l-.1.1a.832.832 0 01-.717.233h-.125a.784.784 0 01-.334-.208.833.833 0 010-1.175l.11-.1a.834.834 0 00-.593-1.424h-.15a.833.833 0 010-1.667h.142a.834.834 0 00.592-1.425l-.1-.1a.834.834 0 011.175-1.183l.1.108a.833.833 0 001.424-.591v-.167a.833.833 0 111.667 0v.142a.833.833 0 001.425.591l.1-.1a.834.834 0 011.183 1.175l-.108.1a.834.834 0 00.591 1.425h.142a.833.833 0 010 1.666z" fill="#FFBB01"/></svg>