<svg width="50" height="50" fill="none" xmlns="http://www.w3.org/2000/svg"><path d="M49.167 24.167H30.108a.833.833 0 000 1.666h18.225v8.334h-4.166v-5.834a.833.833 0 00-1.667 0v5.834H20v-8.334h5a.833.833 0 000-1.666h-5.833a.833.833 0 00-.834.833v10c0 .46.373.833.834.833h7.5V37.5h-7.5a.833.833 0 00-.834.833v5.834h-2.5v-.834A.833.833 0 0015 42.5h-2.5v-4.167a.833.833 0 10-1.667 0v5c0 .46.373.834.834.834h2.5v1.666H5.833v-1.666h2.5c.46 0 .834-.373.834-.834v-5a.833.833 0 10-1.667 0V42.5H5a.833.833 0 00-.833.833v.834H.833a.833.833 0 000 1.666h3.334v.834c0 .46.373.833.833.833h10c.46 0 .833-.373.833-.833v-.834h2.5v2.5c0 .46.373.834.834.834h30c.46 0 .833-.373.833-.834v-10a.833.833 0 00-.833-.833h-7.5v-1.667h7.5c.46 0 .833-.373.833-.833V25a.833.833 0 00-.833-.833zM48.333 47.5H20v-8.333h22.5V45a.833.833 0 001.667 0v-5.833h4.166V47.5zM40 37.5H28.333v-1.667H40V37.5z" fill="#FFBB01"/><path d="M25 27.5a2.5 2.5 0 100 5 2.5 2.5 0 000-5zm0 3.333a.833.833 0 110-1.667.833.833 0 010 1.667zM30 32.5c.46 0 .833-.373.833-.833v-3.334a.833.833 0 00-1.666 0v3.334c0 .46.373.833.833.833zM34.167 31.667v-3.334a.833.833 0 00-1.667 0v3.334a.833.833 0 001.667 0zM37.5 31.667v-3.334a.833.833 0 00-1.667 0v3.334a.833.833 0 001.667 0zM40.833 31.667v-3.334a.833.833 0 00-1.666 0v3.334a.833.833 0 001.666 0zM26.666 42.5a.833.833 0 00-.833.833A.833.833 0 1125 42.5a.833.833 0 000-1.667 2.5 2.5 0 102.5 2.5.833.833 0 00-.834-.833zM30 40.833a.833.833 0 00-.833.834V45a.833.833 0 001.666 0v-3.333a.833.833 0 00-.833-.834zM33.333 40.833a.833.833 0 00-.833.834V45a.833.833 0 001.667 0v-3.333a.833.833 0 00-.834-.834zM36.667 40.833a.833.833 0 00-.834.834V45a.833.833 0 001.667 0v-3.333a.833.833 0 00-.833-.834zM40 40.833a.833.833 0 00-.834.834V45a.833.833 0 001.667 0v-3.333a.833.833 0 00-.833-.834zM6.317 29.842a.88.88 0 00.35.075.833.833 0 00.35-1.584 9.166 9.166 0 016.316-17.15.833.833 0 001.009-.5A14.083 14.083 0 0127.5 1.668a14.25 14.25 0 0113.833 11.125.833.833 0 00.684.642 7.5 7.5 0 016.316 7.4c-.003.242-.02.484-.05.724a.835.835 0 101.659.184 7.95 7.95 0 00.058-.909 9.117 9.117 0 00-7.167-8.941A15.933 15.933 0 0027.5 0a15.742 15.742 0 00-14.458 9.4 10.462 10.462 0 00-2.209-.233 10.834 10.834 0 00-4.516 20.675z" fill="#FFBB01"/><path d="M13.333 30.509c.07.011.14.011.209 0A10.54 10.54 0 0016.25 29.4a.833.833 0 00-.833-1.441 9.182 9.182 0 01-2.292.941.84.84 0 00.208 1.667v-.058z" fill="#FFBB01"/><path d="M10 35.833c.46 0 .834-.373.834-.833V21.917l1.808 2.708a.833.833 0 00.692.375.78.78 0 00.458-.142.833.833 0 00.233-1.15l-3.333-5-.042-.041a.833.833 0 00-1.3 0l-.042.041-3.333 5a.833.833 0 001.384.917l1.808-2.708V35c0 .46.373.833.833.833zM31.291 15.142a.833.833 0 00-1.15.233l-1.808 2.709v-9.75a.833.833 0 00-1.666 0v9.75l-1.809-2.709a.834.834 0 10-1.383.917l3.333 5a.834.834 0 001.384 0l3.333-5a.833.833 0 00-.234-1.15z" fill="#FFBB01"/></svg>