<svg width="15" height="15" fill="none" xmlns="http://www.w3.org/2000/svg"><path d="M11.844 9.292c-.307-.32-.678-.49-1.07-.49-.39 0-.763.167-1.083.487l-1 .997-.244-.127a4.043 4.043 0 01-.314-.167c-.937-.596-1.788-1.371-2.605-2.375-.396-.5-.662-.921-.855-1.348.26-.238.5-.485.735-.722l.266-.27c.664-.664.664-1.525 0-2.19l-.865-.864c-.098-.098-.2-.2-.294-.301-.19-.196-.39-.399-.595-.589-.307-.304-.675-.465-1.06-.465-.387 0-.76.161-1.077.465l-.007.006L.7 2.425c-.405.405-.636.9-.687 1.472-.076.925.196 1.786.405 2.35.513 1.383 1.28 2.665 2.422 4.04a14.9 14.9 0 004.961 3.884c.728.345 1.7.753 2.786.823.066.003.136.006.2.006.73 0 1.345-.263 1.826-.785.003-.006.01-.01.013-.016.164-.2.354-.38.554-.573.136-.13.275-.266.411-.408.314-.326.478-.706.478-1.096 0-.392-.167-.769-.487-1.086l-1.738-1.744zm1.133 3.334c-.003 0-.003.003 0 0-.123.133-.25.253-.386.386a8.291 8.291 0 00-.611.633c-.32.342-.697.503-1.19.503-.048 0-.099 0-.146-.003-.94-.06-1.814-.427-2.47-.74a14.064 14.064 0 01-4.672-3.66C2.422 8.444 1.7 7.24 1.222 5.949.928 5.16.82 4.546.868 3.967c.031-.37.174-.677.437-.94l1.08-1.08c.154-.145.319-.225.48-.225.2 0 .361.12.463.222l.01.01c.192.18.376.367.569.566.098.102.2.203.3.307l.865.865c.336.335.336.645 0 .981-.092.092-.18.184-.272.272-.266.273-.52.526-.795.773-.006.006-.012.01-.016.016-.272.272-.221.538-.164.718l.01.029c.224.544.54 1.057 1.022 1.668l.003.003c.874 1.077 1.795 1.916 2.811 2.558.13.083.263.15.39.212.114.057.221.111.313.168.013.007.025.016.038.022.108.054.209.08.313.08.263 0 .428-.165.482-.219l1.082-1.083c.108-.107.279-.237.478-.237.197 0 .358.123.456.231l.007.006 1.744 1.745c.326.323.326.655.003.99zM8.095 3.568c.83.14 1.583.532 2.185 1.133.601.602.99 1.355 1.133 2.185a.425.425 0 00.421.354c.026 0 .048-.003.073-.006a.428.428 0 00.352-.494 4.883 4.883 0 00-1.371-2.643 4.883 4.883 0 00-2.644-1.371.43.43 0 00-.494.348.423.423 0 00.345.494zM14.972 6.617a8.033 8.033 0 00-2.258-4.353A8.033 8.033 0 008.361.007a.426.426 0 10-.139.842c1.475.25 2.82.95 3.89 2.016a7.172 7.172 0 012.018 3.891.425.425 0 00.42.355.42.42 0 00.421-.494z" fill="#949494"/></svg>